<?xml version="1.0" encoding="UTF-8"?>
<svg width="1024" height="1024" viewBox="0 0 1024 1024" xmlns="http://www.w3.org/2000/svg">
  <defs>
    <radialGradient id="bg" cx="50%" cy="50%" r="50%">
      <stop offset="0%" style="stop-color:#2d1b69;stop-opacity:1" />
      <stop offset="70%" style="stop-color:#1a1a2e;stop-opacity:1" />
      <stop offset="100%" style="stop-color:#0f0f23;stop-opacity:1" />
    </radialGradient>
  </defs>
  
  <\!-- Background -->
  <rect width="1024" height="1024" fill="url(#bg)" rx="180"/>
  
  <\!-- Stars -->
  <circle cx="200" cy="150" r="3" fill="white" opacity="0.8"/>
  <circle cx="800" cy="200" r="2" fill="white" opacity="0.6"/>
  <circle cx="150" cy="400" r="2.5" fill="white" opacity="0.7"/>
  <circle cx="850" cy="600" r="3" fill="white" opacity="0.9"/>
  <circle cx="300" cy="800" r="2" fill="white" opacity="0.5"/>
  <circle cx="700" cy="900" r="2.5" fill="white" opacity="0.8"/>
  
  <\!-- Main cosmic symbol -->
  <circle cx="512" cy="512" r="200" fill="none" stroke="#FFD700" stroke-width="8"/>
  <circle cx="512" cy="512" r="150" fill="none" stroke="#87CEEB" stroke-width="4" opacity="0.6"/>
  
  <\!-- Central star -->
  <g transform="translate(512,512)">
    <polygon points="0,-60 15,-15 60,0 15,15 0,60 -15,15 -60,0 -15,-15" fill="#FFD700"/>
    <circle cx="0" cy="0" r="25" fill="#FFF"/>
  </g>
  
  <\!-- Orbiting elements -->
  <circle cx="312" cy="312" r="8" fill="#87CEEB" opacity="0.8"/>
  <circle cx="712" cy="312" r="6" fill="#DDA0DD" opacity="0.7"/>
  <circle cx="712" cy="712" r="8" fill="#98FB98" opacity="0.6"/>
  <circle cx="312" cy="712" r="6" fill="#FFB6C1" opacity="0.8"/>
</svg>