<?xml version="1.0" encoding="UTF-8"?>
<svg xmlns="http://www.w3.org/2000/svg" viewBox="0 0 1024 1024" width="1024" height="1024">
  <defs>
    <!-- Lighter background gradient -->
    <linearGradient id="backgroundGradient" x1="0%" y1="0%" x2="100%" y2="100%">
      <stop offset="0%" style="stop-color:#E8F4FD;stop-opacity:1" />
      <stop offset="50%" style="stop-color:#D2E9FC;stop-opacity:1" />
      <stop offset="100%" style="stop-color:#B8DEFF;stop-opacity:1" />
    </linearGradient>
    
    <!-- Vibrant planet gradient -->
    <radialGradient id="planetGradient" cx="30%" cy="30%">
      <stop offset="0%" style="stop-color:#5B9FFF;stop-opacity:1" />
      <stop offset="50%" style="stop-color:#2E7FFF;stop-opacity:1" />
      <stop offset="100%" style="stop-color:#0A3AFF;stop-opacity:1" />
    </radialGradient>
    
    <!-- Spiral gradient for better visibility -->
    <linearGradient id="spiralGradient" x1="0%" y1="0%" x2="100%" y2="100%">
      <stop offset="0%" style="stop-color:#0A3AFF;stop-opacity:1" />
      <stop offset="50%" style="stop-color:#2E7FFF;stop-opacity:1" />
      <stop offset="100%" style="stop-color:#5B9FFF;stop-opacity:1" />
    </linearGradient>
    
    <!-- Bright glow effect -->
    <radialGradient id="glowGradient">
      <stop offset="0%" style="stop-color:#FFFFFF;stop-opacity:0.8" />
      <stop offset="40%" style="stop-color:#5B9FFF;stop-opacity:0.4" />
      <stop offset="100%" style="stop-color:#5B9FFF;stop-opacity:0" />
    </radialGradient>
    
    <!-- Shadow for depth -->
    <filter id="shadow">
      <feDropShadow dx="0" dy="4" stdDeviation="8" flood-color="#0A3AFF" flood-opacity="0.2"/>
    </filter>
  </defs>
  
  <!-- Background with rounded corners for iOS -->
  <rect width="1024" height="1024" fill="url(#backgroundGradient)" rx="180"/>
  
  <!-- White backing for better contrast -->
  <rect width="1024" height="1024" fill="white" rx="180" opacity="0.3"/>
  
  <!-- Soft glow behind spiral -->
  <circle cx="512" cy="512" r="400" fill="url(#glowGradient)" opacity="0.5"/>
  
  <!-- Logarithmic spiral path with better visibility -->
  <path d="M 512,432 
           Q 592,432 656,456
           Q 720,480 768,528
           Q 816,576 840,640
           Q 864,704 864,768
           Q 864,832 832,888
           Q 800,944 736,976
           Q 672,1008 592,1008
           Q 512,1008 432,976
           Q 352,944 288,880
           Q 224,816 192,736
           Q 160,656 160,576
           Q 160,496 200,424
           Q 240,352 312,304
           Q 384,256 472,240
           Q 560,224 648,240
           Q 736,256 808,304
           Q 880,352 920,424"
        fill="none" 
        stroke="url(#spiralGradient)" 
        stroke-width="32" 
        stroke-linecap="round"
        filter="url(#shadow)"
        transform="rotate(-45, 512, 512)" />
  
  <!-- White outline for spiral clarity -->
  <path d="M 512,432 
           Q 592,432 656,456
           Q 720,480 768,528
           Q 816,576 840,640
           Q 864,704 864,768
           Q 864,832 832,888
           Q 800,944 736,976
           Q 672,1008 592,1008
           Q 512,1008 432,976
           Q 352,944 288,880
           Q 224,816 192,736
           Q 160,656 160,576
           Q 160,496 200,424
           Q 240,352 312,304
           Q 384,256 472,240
           Q 560,224 648,240
           Q 736,256 808,304
           Q 880,352 920,424"
        fill="none" 
        stroke="white" 
        stroke-width="40" 
        stroke-linecap="round"
        opacity="0.8"
        transform="rotate(-45, 512, 512)" />
  
  <!-- Planet at center with shadow -->
  <circle cx="512" cy="512" r="100" fill="url(#planetGradient)" filter="url(#shadow)" />
  
  <!-- Inner planet highlight for 3D effect -->
  <circle cx="492" cy="492" r="40" fill="white" opacity="0.4" />
  
  <!-- Bright solar accent node -->
  <circle cx="648" cy="376" r="36" fill="#FFB400" filter="url(#shadow)" />
  <circle cx="640" cy="368" r="16" fill="#FFE066" />
  
  <!-- Enhanced star burst at center -->
  <g transform="translate(512, 512)">
    <path d="M 0,-36 L 8,-8 L 36,0 L 8,8 L 0,36 L -8,8 L -36,0 L -8,-8 Z" 
          fill="#FFB400" />
    <path d="M 0,-20 L 4,-4 L 20,0 L 4,4 L 0,20 L -4,4 L -20,0 L -4,-4 Z" 
          fill="#FFE066" />
  </g>
  
  <!-- Mathematical notation hints (subtle) -->
  <text x="900" y="920" font-family="-apple-system, system-ui, sans-serif" font-size="24" fill="#0A3AFF" opacity="0.3">∫</text>
  <text x="80" y="120" font-family="-apple-system, system-ui, sans-serif" font-size="20" fill="#0A3AFF" opacity="0.2">φ</text>
</svg>