<?xml version="1.0" encoding="UTF-8"?>
<svg xmlns="http://www.w3.org/2000/svg" viewBox="0 0 1024 1024" width="1024" height="1024">
  <defs>
    <!-- Bright spiral gradient -->
    <linearGradient id="spiralGradient" x1="0%" y1="0%" x2="100%" y2="100%">
      <stop offset="0%" style="stop-color:#0A3AFF;stop-opacity:1" />
      <stop offset="50%" style="stop-color:#2E7FFF;stop-opacity:1" />
      <stop offset="100%" style="stop-color:#5B9FFF;stop-opacity:1" />
    </linearGradient>
    
    <!-- Vibrant planet gradient -->
    <radialGradient id="planetGradient" cx="30%" cy="30%">
      <stop offset="0%" style="stop-color:#5B9FFF;stop-opacity:1" />
      <stop offset="50%" style="stop-color:#2E7FFF;stop-opacity:1" />
      <stop offset="100%" style="stop-color:#0A3AFF;stop-opacity:1" />
    </radialGradient>
    
    <!-- Shadow filter for depth -->
    <filter id="shadow">
      <feDropShadow dx="0" dy="4" stdDeviation="6" flood-color="#0A3AFF" flood-opacity="0.3"/>
    </filter>
    
    <!-- Glow filter -->
    <filter id="glow">
      <feGaussianBlur stdDeviation="4" result="coloredBlur"/>
      <feMerge>
        <feMergeNode in="coloredBlur"/>
        <feMergeNode in="SourceGraphic"/>
      </feMerge>
    </filter>
  </defs>
  
  <!-- Background (transparent) -->
  <rect width="1024" height="1024" fill="none" />
  
  <!-- White backing circle for contrast -->
  <circle cx="512" cy="512" r="480" fill="white" opacity="0.2" />
  
  <!-- Main logarithmic spiral with white outline for clarity -->
  <g filter="url(#shadow)">
    <!-- White outline -->
    <path d="M 512,432 
             Q 592,432 656,456
             Q 720,480 768,528
             Q 816,576 840,640
             Q 864,704 864,768
             Q 864,832 832,888
             Q 800,944 736,976
             Q 672,1008 592,1008
             Q 512,1008 432,976
             Q 352,944 288,880
             Q 224,816 192,736
             Q 160,656 160,576
             Q 160,496 200,424
             Q 240,352 312,304
             Q 384,256 472,240
             Q 560,224 648,240
             Q 736,256 808,304
             Q 880,352 920,424"
          fill="none" 
          stroke="white" 
          stroke-width="40" 
          stroke-linecap="round"
          opacity="0.9"
          transform="rotate(-45, 512, 512)" />
    
    <!-- Colored spiral -->
    <path d="M 512,432 
             Q 592,432 656,456
             Q 720,480 768,528
             Q 816,576 840,640
             Q 864,704 864,768
             Q 864,832 832,888
             Q 800,944 736,976
             Q 672,1008 592,1008
             Q 512,1008 432,976
             Q 352,944 288,880
             Q 224,816 192,736
             Q 160,656 160,576
             Q 160,496 200,424
             Q 240,352 312,304
             Q 384,256 472,240
             Q 560,224 648,240
             Q 736,256 808,304
             Q 880,352 920,424"
          fill="none" 
          stroke="url(#spiralGradient)" 
          stroke-width="32" 
          stroke-linecap="round"
          transform="rotate(-45, 512, 512)" />
  </g>
  
  <!-- Planet at center with enhanced 3D effect -->
  <g filter="url(#shadow)">
    <circle cx="512" cy="512" r="100" fill="url(#planetGradient)" />
    <!-- Highlight for 3D effect -->
    <ellipse cx="480" cy="480" rx="40" ry="35" fill="white" opacity="0.4" />
    <!-- Secondary highlight -->
    <circle cx="490" cy="490" r="20" fill="white" opacity="0.2" />
  </g>
  
  <!-- Bright solar accent node -->
  <g filter="url(#glow)">
    <circle cx="648" cy="376" r="36" fill="#FFB400" />
    <circle cx="640" cy="368" r="16" fill="#FFE066" />
  </g>
  
  <!-- Enhanced star burst -->
  <g transform="translate(512, 512)" filter="url(#glow)">
    <path d="M 0,-36 L 8,-8 L 36,0 L 8,8 L 0,36 L -8,8 L -36,0 L -8,-8 Z" 
          fill="#FFB400" />
    <path d="M 0,-20 L 4,-4 L 20,0 L 4,4 L 0,20 L -4,4 L -20,0 L -4,-4 Z" 
          fill="#FFE066" />
  </g>
  
  <!-- Mathematical notation (integral sign) subtly integrated -->
  <path d="M 850,150 Q 870,180 870,220 Q 870,260 850,290"
        fill="none" 
        stroke="#0A3AFF" 
        stroke-width="8" 
        stroke-linecap="round"
        opacity="0.1" />
  
  <!-- Golden ratio spiral hint -->
  <circle cx="180" cy="844" r="4" fill="#0A3AFF" opacity="0.2" />
  <text x="190" y="850" font-family="-apple-system, system-ui, sans-serif" font-size="16" fill="#0A3AFF" opacity="0.2">φ = 1.618...</text>
</svg>